<svg xmlns="http://www.w3.org/2000/svg" viewBox="0 0 213.33 192"><defs><style>.cls-1{font-size:152.8px;}.cls-1,.cls-2,.cls-3{fill:#fff;}.cls-1,.cls-3{font-family:Carbon-Bold, Carbon;font-weight:700;}.cls-3{font-size:34.65px;}</style></defs><title>Asset 5</title><g id="Layer_2" data-name="Layer 2"><g id="Desktop"><g id="Banner"><text class="cls-1" transform="matrix(0.98, 0.25, -0.26, 0.97, 93.09, 139.63)">R</text><path class="cls-2" d="M121.14,17.8l-2.52,25.14L114,42.49l2.12-21.11-11.46-1.11.4-4Z"/><path class="cls-2" d="M147.25,27l-1.64,3.71L135,26.22l-8.61,19.45-4.22-1.81L132.47,20.7Z"/><text class="cls-1" transform="matrix(-0.98, -0.25, -0.26, 0.97, 97, 140.26)">R</text><text class="cls-3" transform="matrix(0.98, 0.25, -0.26, 0.97, 104.98, 59.59)">O</text><path class="cls-2" d="M96.61,147.76,89.83,146a2.1,2.1,0,0,1-1.53-2.56l20.58-77.85a2.14,2.14,0,0,1,2.6-1.5l6.78,1.73a2.1,2.1,0,0,1,1.53,2.56L99.21,146.25A2.14,2.14,0,0,1,96.61,147.76Z"/></g></g></g></svg>