<svg xmlns="http://www.w3.org/2000/svg" viewBox="0 0 53.33 48"><defs><style>.cls-1{font-size:38.2px;}.cls-1,.cls-2,.cls-3{fill:#511e5e;}.cls-1,.cls-3{font-family:Carbon-Bold, Carbon;font-weight:700;}.cls-3{font-size:8.66px;}</style></defs><title>Asset 1</title><g id="Layer_2" data-name="Layer 2"><g id="Desktop"><g id="TopMenu"><text class="cls-1" transform="matrix(0.98, 0.25, -0.26, 0.97, 23.27, 34.91)">R</text><path class="cls-2" d="M30.26,4.44l-.63,6.29-1.15-.11L29,5.34l-2.86-.28.1-1Z"/><path class="cls-2" d="M36.78,6.75l-.41.93L33.73,6.55l-2.15,4.86L30.53,11l2.56-5.79Z"/><text class="cls-1" transform="matrix(-0.98, -0.25, -0.26, 0.97, 24.25, 35.07)">R</text><text class="cls-3" transform="matrix(0.98, 0.25, -0.26, 0.97, 26.24, 14.9)">O</text><path class="cls-2" d="M24.12,36.93l-1.69-.43a.53.53,0,0,1-.38-.64L27.19,16.4a.54.54,0,0,1,.65-.38l1.69.43a.53.53,0,0,1,.38.64L24.77,36.56A.54.54,0,0,1,24.12,36.93Z"/></g></g></g></svg>