<svg xmlns="http://www.w3.org/2000/svg" viewBox="0 0 282 282"><defs><style>.cls-1{fill:none;stroke:#f9f9f9;stroke-miterlimit:10;stroke-width:4px;}.cls-2{fill:#fff;}.cls-3{font-size:30.05px;font-family:Consolas, Consolas;}.cls-3,.cls-4{fill:#511e5e;}</style></defs><title>Asset 6</title><g id="Layer_2" data-name="Layer 2"><g id="Desktop"><g id="Banner"><ellipse class="cls-1" cx="130" cy="130.23" rx="128" ry="128.23"/><ellipse class="cls-2" cx="128" cy="257.96" rx="24" ry="24.04"/><text class="cls-3" transform="translate(103.26 265.72)">&lt;w&gt;</text><ellipse class="cls-2" cx="258" cy="117.71" rx="24" ry="24.04" transform="matrix(1, -0.01, 0.01, 1, -1.58, 3.53)"/><path class="cls-4" d="M250.32,126.76l-2.38,0-.51-11.16-.21-4.28-.8,2.5L243.88,121l-1.68,0-2.61-6.81-.87-2.76v4.48l-.17,11-2.3,0,.63-17.91,2.88,0,2.5,6.71.81,2.26.72-2.28,2.44-6.77,3,0Z"/><path class="cls-4" d="M266.08,108.64l-5.83,18-3.28,0-6.18-17.82,2.75,0,4,12,1.14,3.52,1.07-3.55,3.7-12.12Z"/><path class="cls-4" d="M280,125.69a11.62,11.62,0,0,1-4.49,1,7.4,7.4,0,0,1-5.85-2.19q-2.06-2.24-2.12-6.68a12.63,12.63,0,0,1,.51-3.9,8.47,8.47,0,0,1,1.56-3,7,7,0,0,1,2.49-1.9,8,8,0,0,1,3.3-.7,11.82,11.82,0,0,1,2.31.18,9.66,9.66,0,0,1,2.06.62l0,2.4a9.06,9.06,0,0,0-2-.79,8.69,8.69,0,0,0-2.27-.25,5.34,5.34,0,0,0-2.27.5,4.71,4.71,0,0,0-1.71,1.39,6.41,6.41,0,0,0-1.06,2.21,10.43,10.43,0,0,0-.34,3,8.29,8.29,0,0,0,1.48,5.23,5,5,0,0,0,4.15,1.71,8.92,8.92,0,0,0,2.2-.3,10.23,10.23,0,0,0,2-.77Z"/><ellipse class="cls-2" cx="43" cy="38.57" rx="24" ry="24.04"/><ellipse class="cls-4" cx="43" cy="26.04" rx="15.5" ry="3.51"/><ellipse class="cls-4" cx="43" cy="51.09" rx="15.5" ry="3.51"/><rect class="cls-4" x="28" y="26.54" width="1" height="24.04"/><rect class="cls-4" x="57" y="26.54" width="1" height="24.04"/></g></g></g></svg>